<?xml version="1.0" encoding="iso-8859-1"?>
<!-- Generator: Adobe Illustrator 19.0.0, SVG Export Plug-In . SVG Version: 6.00 Build 0)  -->
<svg version="1.1" id="Layer_1" xmlns="http://www.w3.org/2000/svg" xmlns:xlink="http://www.w3.org/1999/xlink" x="0px" y="0px"
	 viewBox="0 0 297 297" style="enable-background:new 0 0 297 297;" xml:space="preserve" fill="#015040">
<g>
	<g>
		<g>
			<path d="M287.631,115.943h-8.905c-3.165-8.993-11.741-15.459-21.803-15.459h-77.709c-6.952,0-13.466,3.083-17.873,8.459
				c-1.737,2.118-3.053,4.49-3.935,7h-17.81c-0.883-2.511-2.199-4.882-3.935-7c-4.406-5.375-10.921-8.459-17.873-8.459h-77.71
				c-10.062,0-18.638,6.466-21.803,15.459H9.369c-5.174,0-9.369,4.195-9.369,9.369c0,5.174,4.195,9.369,9.369,9.369h7.598v38.725
				c0,12.743,10.367,23.111,23.111,23.111h67.747c10.978,0,20.51-7.813,22.662-18.578l8.651-43.258h18.725l8.651,43.258
				c2.153,10.765,11.683,18.578,22.661,18.578h67.747c12.743,0,23.111-10.367,23.111-23.111V134.68h7.598
				c5.174,0,9.369-4.195,9.369-9.369C297,120.138,292.805,115.943,287.631,115.943z M122.074,124.451l-9.962,49.813
				c-0.407,2.037-2.211,3.514-4.288,3.514H40.078c-2.411,0-4.373-1.962-4.373-4.373v-49.812c0-2.411,1.962-4.373,4.373-4.373h77.709
				c1.801,0,2.891,1.003,3.382,1.6C121.658,121.419,122.428,122.686,122.074,124.451z M261.296,173.406L261.296,173.406
				c-0.001,2.411-1.963,4.373-4.374,4.373h-67.747c-2.077,0-3.88-1.478-4.287-3.514l-9.962-49.814
				c-0.353-1.765,0.416-3.031,0.906-3.629c0.49-0.597,1.581-1.6,3.382-1.6h77.709c2.411,0,4.373,1.962,4.373,4.373V173.406z"/>
			<path d="M75.274,126.102l-18.738,18.738c-2.927,2.928-2.927,7.673,0,10.601c1.464,1.463,3.382,2.195,5.3,2.195
				c1.919,0,3.836-0.732,5.3-2.195l18.738-18.738c2.927-2.928,2.927-7.673,0-10.601C82.947,123.175,78.202,123.175,75.274,126.102z"
				/>
			<path d="M61.046,136.702c2.927-2.928,2.927-7.673,0-10.601c-2.928-2.926-7.673-2.926-10.601,0l-4.685,4.685
				c-2.927,2.928-2.927,7.673,0,10.601c1.464,1.463,3.382,2.195,5.3,2.195c1.919,0,3.836-0.732,5.3-2.195L61.046,136.702z"/>
			<path d="M219.089,126.102l-18.738,18.738c-2.927,2.928-2.927,7.673,0,10.601c1.464,1.463,3.382,2.195,5.3,2.195
				c1.919,0,3.836-0.732,5.3-2.195l18.738-18.738c2.927-2.928,2.927-7.673,0-10.601
				C226.762,123.175,222.017,123.175,219.089,126.102z"/>
			<path d="M204.862,136.702c2.927-2.928,2.927-7.673,0-10.601c-2.928-2.926-7.673-2.926-10.601,0l-4.685,4.685
				c-2.927,2.928-2.927,7.673,0,10.601c1.464,1.463,3.382,2.195,5.3,2.195c1.919,0,3.836-0.732,5.3-2.195L204.862,136.702z"/>
		</g>
	</g>
</g>
<g>
</g>
<g>
</g>
<g>
</g>
<g>
</g>
<g>
</g>
<g>
</g>
<g>
</g>
<g>
</g>
<g>
</g>
<g>
</g>
<g>
</g>
<g>
</g>
<g>
</g>
<g>
</g>
<g>
</g>
</svg>
