<?xml version="1.0" encoding="iso-8859-1"?>
<!-- Generator: Adobe Illustrator 19.0.0, SVG Export Plug-In . SVG Version: 6.00 Build 0)  -->
<svg version="1.1" id="Layer_1" xmlns="http://www.w3.org/2000/svg" xmlns:xlink="http://www.w3.org/1999/xlink" x="0px" y="0px"
	 viewBox="0 0 512.002 512.002" style="enable-background:new 0 0 512.002 512.002;" xml:space="preserve">
<g>
	<g>
		<path d="M500.712,266.351h-32.265c0.197-0.197,8.279-8.279,8.476-8.476c0,0,0,0,0-0.002c0.009-0.009,0.02-0.02,0.029-0.029
			c0.023-0.023,0.036-0.036,0.042-0.042c46.624-46.699,46.599-122.623-0.071-169.294c-46.693-46.693-122.67-46.693-169.365,0
			L256,140.067l-51.559-51.559c-46.693-46.693-122.67-46.693-169.365,0c-46.695,46.693-46.693,122.671,0,169.363l8.478,8.478H11.288
			C5.054,266.349,0,271.403,0,277.637s5.054,11.288,11.288,11.288h54.84c0,0,155.106,155.106,155.285,155.285
			c0.003,0.002,0.006,0.005,0.008,0.008c0.002,0.002,0.003,0.003,0.005,0.005c19.067,19.055,50.09,19.06,69.163-0.012
			c1.776-1.776,102.704-102.704,155.285-155.285h54.84c6.234,0,11.288-5.054,11.288-11.288
			C512.002,271.403,506.946,266.351,500.712,266.351z M274.625,428.249c-10.269,10.269-26.979,10.269-37.248,0
			c-0.009-0.009-0.018-0.018-0.027-0.027c-2.036-2.036-84.752-84.752-139.294-139.294h24.965c3.62,0,7.019-1.735,9.143-4.667
			l41.998-57.999l48.597,140.538c3.407,9.852,17.261,10.221,21.149,0.503l49.479-123.698l49.72,70.336
			c3.778,5.344,11.283,6.351,16.336,2.245l33.548-27.257h20.959L274.625,428.249z M460.96,241.914
			c-0.068,0.066-0.134,0.135-0.199,0.203c-0.084,0.081-0.167,0.163-0.25,0.247l-23.989,23.989h-47.541
			c-2.593,0-5.107,0.893-7.119,2.527l-27.291,22.174l-54.739-77.435c-5.156-7.293-16.379-5.975-19.698,2.324l-45.942,114.854
			l-45.786-132.412c-2.984-8.625-14.466-10.311-19.811-2.932l-51.341,70.899H75.478c-14.152-14.152-23.558-23.558-24.439-24.439
			c-37.892-37.892-37.892-99.547,0-137.439c37.893-37.892,99.547-37.892,137.439,0l59.542,59.542c4.408,4.408,11.556,4.408,15.962,0
			l59.54-59.542c37.892-37.892,99.545-37.892,137.439,0c37.89,37.892,37.89,99.547,0,137.439l0.008,0.009L460.96,241.914z"/>
	</g>
</g>
<g>
</g>
<g>
</g>
<g>
</g>
<g>
</g>
<g>
</g>
<g>
</g>
<g>
</g>
<g>
</g>
<g>
</g>
<g>
</g>
<g>
</g>
<g>
</g>
<g>
</g>
<g>
</g>
<g>
</g>
</svg>
