<?xml version="1.0" encoding="iso-8859-1"?>
<!-- Generator: Adobe Illustrator 19.0.0, SVG Export Plug-In . SVG Version: 6.00 Build 0)  -->
<svg version="1.1" id="Layer_1" xmlns="http://www.w3.org/2000/svg" xmlns:xlink="http://www.w3.org/1999/xlink" x="0px" y="0px"
	 viewBox="0 0 297 297" style="enable-background:new 0 0 297 297;" xml:space="preserve" fill="#015040">
<g>
	<g>
		<path d="M148.5,31.34C66.617,31.34,0,97.956,0,179.839c0,5.579,4.523,10.102,10.102,10.102h27.309
			c2.753,28.168,16.133,54.404,37.669,73.224c1.841,1.608,4.203,2.495,6.647,2.495h133.546c2.445,0,4.806-0.887,6.647-2.495
			c21.535-18.82,34.915-45.056,37.669-73.224h27.309c5.579,0,10.102-4.523,10.102-10.102C297,97.956,230.383,31.34,148.5,31.34z
			 M211.367,245.456H85.633c-18.194-17.244-28.556-41.225-28.556-66.373c0-50.412,41.013-91.423,91.423-91.423
			c21.087,0,40.526,7.18,56.011,19.218l-45.546,33.488c-13.605-3.582-28.709-0.061-39.355,10.582
			c-15.93,15.93-15.93,41.851,0,57.782c7.966,7.965,18.426,11.947,28.89,11.947c10.461,0,20.926-3.984,28.89-11.947
			c10.646-10.646,14.167-25.752,10.583-39.358l33.4-45.428c11.635,15.339,18.55,34.446,18.55,55.14
			C239.923,204.231,229.561,228.213,211.367,245.456z M192.751,135.586l-13.106,17.826c-0.716-0.842-1.46-1.669-2.256-2.464
			c-0.795-0.795-1.621-1.539-2.464-2.255L192.751,135.586z M163.105,194.443c-8.054,8.054-21.158,8.052-29.208,0
			c-8.053-8.053-8.053-21.155,0-29.208c4.025-4.026,9.314-6.04,14.603-6.04s10.578,2.014,14.604,6.04
			C171.157,173.287,171.157,186.39,163.105,194.443z M259.733,169.737L259.733,169.737c-1.979-23.754-11.426-45.415-25.982-62.629
			l3.398-4.622c2.365-3.217,2.026-7.679-0.796-10.503c-2.823-2.824-7.286-3.162-10.503-0.796l-4.549,3.345
			c-19.56-16.865-45.01-27.076-72.802-27.076c-58.404,0-106.469,45.087-111.233,102.281H20.598
			C25.764,103.695,81.156,51.544,148.5,51.544s122.736,52.153,127.902,118.194H259.733z"/>
	</g>
</g>
<g>
</g>
<g>
</g>
<g>
</g>
<g>
</g>
<g>
</g>
<g>
</g>
<g>
</g>
<g>
</g>
<g>
</g>
<g>
</g>
<g>
</g>
<g>
</g>
<g>
</g>
<g>
</g>
<g>
</g>
</svg>
