<?xml version="1.0" standalone="no"?><svg xmlns:xlink="http://www.w3.org/1999/xlink" xmlns="http://www.w3.org/2000/svg" viewBox="0 0 1000 909.0909090909091" preserveAspectRatio="xMaxYMax slice"><g transform="scale(2.1141649048625792)"><rect x="0" y="0" width="473" height="430" fill="#ffffff"/><rect x="0" y="0" width="43" height="43" fill="#000000"/><polygon points="0,0 43,0 43,43" fill="#232729"/><rect x="43" y="0" width="43" height="43" fill="#000000"/><g transform="translate(43,0) scale(2.15) rotate(0)"><path d="M5 0H10L5 5L0 10V5L5 0Z" fill="#000000"/><path d="M20 15V20H15L20 15Z" fill="#000000"/><path d="M20 5V10L15 15L10 20H5L20 5Z" fill="#000000"/><path d="M15 0H20L5 15.0002L0 20.0002V15.0002L15 0Z" fill="#000000"/></g><rect x="86" y="0" width="43" height="43" fill="#151515"/><polygon points="86,0 129,0 129,43" fill="#232729"/><rect x="129" y="0" width="43" height="43" fill="#2C2C2C"/><g transform="translate(129,0) scale(2.15) rotate(0)"><path d="M10 0H20L0 20V10L10 0Z" fill="#000000"/><path d="M20 10V20H10L20 10Z" fill="#000000"/></g><rect x="172" y="0" width="43" height="43" fill="#000000"/><g transform="translate(172,0) scale(2.15) rotate(0)"><path d="M5 0H10L5 5L0 10V5L5 0Z" fill="#151515"/><path d="M20 15V20H15L20 15Z" fill="#151515"/><path d="M20 5V10L15 15L10 20H5L20 5Z" fill="#151515"/><path d="M15 0H20L5 15.0002L0 20.0002V15.0002L15 0Z" fill="#151515"/></g><rect x="215" y="0" width="43" height="43" fill="#151515"/><rect x="215" y="0" width="43" height="43" fill="#2C2C2C"/><rect x="258" y="0" width="43" height="43" fill="#2C2C2C"/><rect x="258" y="0" width="43" height="43" fill="#232729"/><rect x="301" y="0" width="43" height="43" fill="#000000"/><polygon points="301,0 344,43 301,43" fill="#000000"/><rect x="344" y="0" width="43" height="43" fill="#232729"/><g transform="translate(344,0) scale(2.15) rotate(0)"><rect width="2" height="20" fill="#000000"/><rect x="4" width="2" height="20" fill="#000000"/><rect x="8" width="2" height="20" fill="#000000"/><rect x="12" width="2" height="20" fill="#000000"/><rect x="16" width="2" height="20" fill="#000000"/></g><rect x="387" y="0" width="43" height="43" fill="#000000"/><polygon points="430,0 430,43 387,43" fill="#000000"/><rect x="430" y="0" width="43" height="43" fill="#151515"/><g transform="translate(430,0) scale(2.15) rotate(0)"><path d="M5 0H10L5 5L0 10V5L5 0Z" fill="#232729"/><path d="M20 15V20H15L20 15Z" fill="#232729"/><path d="M20 5V10L15 15L10 20H5L20 5Z" fill="#232729"/><path d="M15 0H20L5 15.0002L0 20.0002V15.0002L15 0Z" fill="#232729"/></g><rect x="0" y="43" width="43" height="43" fill="#000000"/><rect x="0" y="43" width="43" height="43" fill="#232729"/><rect x="43" y="43" width="43" height="43" fill="#000000"/><polygon points="86,43 86,86 43,86" fill="#000000"/><rect x="86" y="43" width="43" height="43" fill="#232729"/><g transform="translate(86,43) scale(2.15) rotate(0)"><rect width="2" height="20" fill="#151515"/><rect x="4" width="2" height="20" fill="#151515"/><rect x="8" width="2" height="20" fill="#151515"/><rect x="12" width="2" height="20" fill="#151515"/><rect x="16" width="2" height="20" fill="#151515"/></g><rect x="129" y="43" width="43" height="43" fill="#2C2C2C"/><polygon points="129,43 172,43 172,86" fill="#2C2C2C"/><rect x="172" y="43" width="43" height="43" fill="#2C2C2C"/><g transform="translate(172,43) scale(2.15) rotate(0)"><path d="M5 0H10L5 5L0 10V5L5 0Z" fill="#2C2C2C"/><path d="M20 15V20H15L20 15Z" fill="#2C2C2C"/><path d="M20 5V10L15 15L10 20H5L20 5Z" fill="#2C2C2C"/><path d="M15 0H20L5 15.0002L0 20.0002V15.0002L15 0Z" fill="#2C2C2C"/></g><rect x="215" y="43" width="43" height="43" fill="#151515"/><g transform="translate(215,43) scale(2.15) rotate(0)"><path d="M5 0H10L5 5L0 10V5L5 0Z" fill="#2C2C2C"/><path d="M20 15V20H15L20 15Z" fill="#2C2C2C"/><path d="M20 5V10L15 15L10 20H5L20 5Z" fill="#2C2C2C"/><path d="M15 0H20L5 15.0002L0 20.0002V15.0002L15 0Z" fill="#2C2C2C"/></g><rect x="258" y="43" width="43" height="43" fill="#000000"/><rect x="258" y="43" width="43" height="43" fill="#000000"/><rect x="301" y="43" width="43" height="43" fill="#000000"/><rect x="301" y="43" width="43" height="43" fill="#2C2C2C"/><rect x="344" y="43" width="43" height="43" fill="#000000"/><g transform="translate(344,43) scale(2.15) rotate(0)"><rect width="2" height="20" fill="#151515"/><rect x="4" width="2" height="20" fill="#151515"/><rect x="8" width="2" height="20" fill="#151515"/><rect x="12" width="2" height="20" fill="#151515"/><rect x="16" width="2" height="20" fill="#151515"/></g><rect x="387" y="43" width="43" height="43" fill="#000000"/><g transform="translate(387,43) scale(2.15) rotate(0)"><rect width="2" height="20" fill="#000000"/><rect x="4" width="2" height="20" fill="#000000"/><rect x="8" width="2" height="20" fill="#000000"/><rect x="12" width="2" height="20" fill="#000000"/><rect x="16" width="2" height="20" fill="#000000"/></g><rect x="430" y="43" width="43" height="43" fill="#2C2C2C"/><polygon points="430,43 473,86 430,86" fill="#151515"/><rect x="0" y="86" width="43" height="43" fill="#151515"/><rect x="0" y="86" width="43" height="43" fill="#232729"/><rect x="43" y="86" width="43" height="43" fill="#000000"/><g transform="translate(43,86) scale(2.15) rotate(0)"><path d="M10 0H20L0 20V10L10 0Z" fill="#000000"/><path d="M20 10V20H10L20 10Z" fill="#000000"/></g><rect x="86" y="86" width="43" height="43" fill="#2C2C2C"/><polygon points="86,86 129,86 129,129" fill="#2C2C2C"/><rect x="129" y="86" width="43" height="43" fill="#000000"/><g transform="translate(129,86) scale(2.15) rotate(0)"><path d="M10 0H20L0 20V10L10 0Z" fill="#2C2C2C"/><path d="M20 10V20H10L20 10Z" fill="#2C2C2C"/></g><rect x="172" y="86" width="43" height="43" fill="#2C2C2C"/><g transform="translate(172,86) scale(2.15) rotate(0)"><path d="M5 0H10L5 5L0 10V5L5 0Z" fill="#000000"/><path d="M20 15V20H15L20 15Z" fill="#000000"/><path d="M20 5V10L15 15L10 20H5L20 5Z" fill="#000000"/><path d="M15 0H20L5 15.0002L0 20.0002V15.0002L15 0Z" fill="#000000"/></g><rect x="215" y="86" width="43" height="43" fill="#000000"/><g transform="translate(215,86) scale(2.15) rotate(0)"><path d="M5 0H10L5 5L0 10V5L5 0Z" fill="#151515"/><path d="M20 15V20H15L20 15Z" fill="#151515"/><path d="M20 5V10L15 15L10 20H5L20 5Z" fill="#151515"/><path d="M15 0H20L5 15.0002L0 20.0002V15.0002L15 0Z" fill="#151515"/></g><rect x="258" y="86" width="43" height="43" fill="#151515"/><g transform="translate(258,86) scale(2.15) rotate(0)"><rect width="2" height="20" fill="#232729"/><rect x="4" width="2" height="20" fill="#232729"/><rect x="8" width="2" height="20" fill="#232729"/><rect x="12" width="2" height="20" fill="#232729"/><rect x="16" width="2" height="20" fill="#232729"/></g><rect x="301" y="86" width="43" height="43" fill="#000000"/><g transform="translate(301,86) scale(2.15) rotate(0)"><path d="M5 0H10L5 5L0 10V5L5 0Z" fill="#151515"/><path d="M20 15V20H15L20 15Z" fill="#151515"/><path d="M20 5V10L15 15L10 20H5L20 5Z" fill="#151515"/><path d="M15 0H20L5 15.0002L0 20.0002V15.0002L15 0Z" fill="#151515"/></g><rect x="344" y="86" width="43" height="43" fill="#151515"/><g transform="translate(344,86) scale(2.15) rotate(0)"><path d="M5 0H10L5 5L0 10V5L5 0Z" fill="#232729"/><path d="M20 15V20H15L20 15Z" fill="#232729"/><path d="M20 5V10L15 15L10 20H5L20 5Z" fill="#232729"/><path d="M15 0H20L5 15.0002L0 20.0002V15.0002L15 0Z" fill="#232729"/></g><rect x="387" y="86" width="43" height="43" fill="#151515"/><g transform="translate(387,86) scale(2.15) rotate(0)"><path d="M10 0H20L0 20V10L10 0Z" fill="#000000"/><path d="M20 10V20H10L20 10Z" fill="#000000"/></g><rect x="430" y="86" width="43" height="43" fill="#000000"/><rect x="430" y="86" width="43" height="43" fill="#2C2C2C"/><rect x="0" y="129" width="43" height="43" fill="#151515"/><polygon points="43,129 43,172 0,172" fill="#151515"/><rect x="43" y="129" width="43" height="43" fill="#2C2C2C"/><g transform="translate(43,129) scale(2.15) rotate(0)"><path d="M5 0H10L5 5L0 10V5L5 0Z" fill="#2C2C2C"/><path d="M20 15V20H15L20 15Z" fill="#2C2C2C"/><path d="M20 5V10L15 15L10 20H5L20 5Z" fill="#2C2C2C"/><path d="M15 0H20L5 15.0002L0 20.0002V15.0002L15 0Z" fill="#2C2C2C"/></g><rect x="86" y="129" width="43" height="43" fill="#232729"/><polygon points="86,129 129,129 129,172" fill="#232729"/><rect x="129" y="129" width="43" height="43" fill="#2C2C2C"/><rect x="129" y="129" width="43" height="43" fill="#000000"/><rect x="172" y="129" width="43" height="43" fill="#232729"/><rect x="172" y="129" width="43" height="43" fill="#232729"/><rect x="215" y="129" width="43" height="43" fill="#2C2C2C"/><polygon points="215,129 258,129 258,172" fill="#151515"/><rect x="258" y="129" width="43" height="43" fill="#2C2C2C"/><g transform="translate(258,129) scale(2.15) rotate(0)"><path d="M5 0H10L5 5L0 10V5L5 0Z" fill="#151515"/><path d="M20 15V20H15L20 15Z" fill="#151515"/><path d="M20 5V10L15 15L10 20H5L20 5Z" fill="#151515"/><path d="M15 0H20L5 15.0002L0 20.0002V15.0002L15 0Z" fill="#151515"/></g><rect x="301" y="129" width="43" height="43" fill="#151515"/><g transform="translate(301,129) scale(2.15) rotate(0)"><path d="M10 0H20L0 20V10L10 0Z" fill="#2C2C2C"/><path d="M20 10V20H10L20 10Z" fill="#2C2C2C"/></g><rect x="344" y="129" width="43" height="43" fill="#232729"/><rect x="344" y="129" width="43" height="43" fill="#2C2C2C"/><rect x="387" y="129" width="43" height="43" fill="#2C2C2C"/><polygon points="430,129 430,172 387,172" fill="#000000"/><rect x="430" y="129" width="43" height="43" fill="#000000"/><g transform="translate(430,129) scale(2.15) rotate(0)"><path d="M10 0H20L0 20V10L10 0Z" fill="#000000"/><path d="M20 10V20H10L20 10Z" fill="#000000"/></g><rect x="0" y="172" width="43" height="43" fill="#000000"/><g transform="translate(0,172) scale(2.15) rotate(0)"><rect width="2" height="20" fill="#151515"/><rect x="4" width="2" height="20" fill="#151515"/><rect x="8" width="2" height="20" fill="#151515"/><rect x="12" width="2" height="20" fill="#151515"/><rect x="16" width="2" height="20" fill="#151515"/></g><rect x="43" y="172" width="43" height="43" fill="#000000"/><g transform="translate(43,172) scale(2.15) rotate(0)"><rect width="2" height="20" fill="#2C2C2C"/><rect x="4" width="2" height="20" fill="#2C2C2C"/><rect x="8" width="2" height="20" fill="#2C2C2C"/><rect x="12" width="2" height="20" fill="#2C2C2C"/><rect x="16" width="2" height="20" fill="#2C2C2C"/></g><rect x="86" y="172" width="43" height="43" fill="#232729"/><g transform="translate(86,172) scale(2.15) rotate(0)"><path d="M5 0H10L5 5L0 10V5L5 0Z" fill="#151515"/><path d="M20 15V20H15L20 15Z" fill="#151515"/><path d="M20 5V10L15 15L10 20H5L20 5Z" fill="#151515"/><path d="M15 0H20L5 15.0002L0 20.0002V15.0002L15 0Z" fill="#151515"/></g><rect x="129" y="172" width="43" height="43" fill="#232729"/><polygon points="129,172 172,172 129,215" fill="#000000"/><rect x="172" y="172" width="43" height="43" fill="#151515"/><g transform="translate(172,172) scale(2.15) rotate(0)"><path d="M10 0H20L0 20V10L10 0Z" fill="#232729"/><path d="M20 10V20H10L20 10Z" fill="#232729"/></g><rect x="215" y="172" width="43" height="43" fill="#232729"/><rect x="215" y="172" width="43" height="43" fill="#000000"/><rect x="258" y="172" width="43" height="43" fill="#2C2C2C"/><rect x="258" y="172" width="43" height="43" fill="#2C2C2C"/><rect x="301" y="172" width="43" height="43" fill="#000000"/><rect x="301" y="172" width="43" height="43" fill="#000000"/><rect x="344" y="172" width="43" height="43" fill="#000000"/><g transform="translate(344,172) scale(2.15) rotate(0)"><rect width="2" height="20" fill="#232729"/><rect x="4" width="2" height="20" fill="#232729"/><rect x="8" width="2" height="20" fill="#232729"/><rect x="12" width="2" height="20" fill="#232729"/><rect x="16" width="2" height="20" fill="#232729"/></g><rect x="387" y="172" width="43" height="43" fill="#151515"/><polygon points="430,172 430,215 387,215" fill="#151515"/><rect x="430" y="172" width="43" height="43" fill="#000000"/><g transform="translate(430,172) scale(2.15) rotate(0)"><path d="M10 0H20L0 20V10L10 0Z" fill="#000000"/><path d="M20 10V20H10L20 10Z" fill="#000000"/></g><rect x="0" y="215" width="43" height="43" fill="#000000"/><rect x="0" y="215" width="43" height="43" fill="#232729"/><rect x="43" y="215" width="43" height="43" fill="#2C2C2C"/><polygon points="43,215 86,258 43,258" fill="#2C2C2C"/><rect x="86" y="215" width="43" height="43" fill="#000000"/><polygon points="86,215 129,258 86,258" fill="#232729"/><rect x="129" y="215" width="43" height="43" fill="#151515"/><g transform="translate(129,215) scale(2.15) rotate(0)"><path d="M5 0H10L5 5L0 10V5L5 0Z" fill="#000000"/><path d="M20 15V20H15L20 15Z" fill="#000000"/><path d="M20 5V10L15 15L10 20H5L20 5Z" fill="#000000"/><path d="M15 0H20L5 15.0002L0 20.0002V15.0002L15 0Z" fill="#000000"/></g><rect x="172" y="215" width="43" height="43" fill="#000000"/><g transform="translate(172,215) scale(2.15) rotate(0)"><rect width="2" height="20" fill="#2C2C2C"/><rect x="4" width="2" height="20" fill="#2C2C2C"/><rect x="8" width="2" height="20" fill="#2C2C2C"/><rect x="12" width="2" height="20" fill="#2C2C2C"/><rect x="16" width="2" height="20" fill="#2C2C2C"/></g><rect x="215" y="215" width="43" height="43" fill="#000000"/><g transform="translate(215,215) scale(2.15) rotate(0)"><path d="M5 0H10L5 5L0 10V5L5 0Z" fill="#2C2C2C"/><path d="M20 15V20H15L20 15Z" fill="#2C2C2C"/><path d="M20 5V10L15 15L10 20H5L20 5Z" fill="#2C2C2C"/><path d="M15 0H20L5 15.0002L0 20.0002V15.0002L15 0Z" fill="#2C2C2C"/></g><rect x="258" y="215" width="43" height="43" fill="#232729"/><rect x="258" y="215" width="43" height="43" fill="#232729"/><rect x="301" y="215" width="43" height="43" fill="#000000"/><rect x="301" y="215" width="43" height="43" fill="#2C2C2C"/><rect x="344" y="215" width="43" height="43" fill="#000000"/><rect x="344" y="215" width="43" height="43" fill="#2C2C2C"/><rect x="387" y="215" width="43" height="43" fill="#000000"/><polygon points="387,215 430,215 387,258" fill="#232729"/><rect x="430" y="215" width="43" height="43" fill="#2C2C2C"/><g transform="translate(430,215) scale(2.15) rotate(0)"><rect width="2" height="20" fill="#2C2C2C"/><rect x="4" width="2" height="20" fill="#2C2C2C"/><rect x="8" width="2" height="20" fill="#2C2C2C"/><rect x="12" width="2" height="20" fill="#2C2C2C"/><rect x="16" width="2" height="20" fill="#2C2C2C"/></g><rect x="0" y="258" width="43" height="43" fill="#151515"/><g transform="translate(0,258) scale(2.15) rotate(0)"><rect width="2" height="20" fill="#2C2C2C"/><rect x="4" width="2" height="20" fill="#2C2C2C"/><rect x="8" width="2" height="20" fill="#2C2C2C"/><rect x="12" width="2" height="20" fill="#2C2C2C"/><rect x="16" width="2" height="20" fill="#2C2C2C"/></g><rect x="43" y="258" width="43" height="43" fill="#2C2C2C"/><g transform="translate(43,258) scale(2.15) rotate(0)"><path d="M10 0H20L0 20V10L10 0Z" fill="#2C2C2C"/><path d="M20 10V20H10L20 10Z" fill="#2C2C2C"/></g><rect x="86" y="258" width="43" height="43" fill="#2C2C2C"/><g transform="translate(86,258) scale(2.15) rotate(0)"><path d="M10 0H20L0 20V10L10 0Z" fill="#000000"/><path d="M20 10V20H10L20 10Z" fill="#000000"/></g><rect x="129" y="258" width="43" height="43" fill="#2C2C2C"/><g transform="translate(129,258) scale(2.15) rotate(0)"><path d="M10 0H20L0 20V10L10 0Z" fill="#000000"/><path d="M20 10V20H10L20 10Z" fill="#000000"/></g><rect x="172" y="258" width="43" height="43" fill="#151515"/><rect x="172" y="258" width="43" height="43" fill="#000000"/><rect x="215" y="258" width="43" height="43" fill="#2C2C2C"/><rect x="215" y="258" width="43" height="43" fill="#2C2C2C"/><rect x="258" y="258" width="43" height="43" fill="#2C2C2C"/><g transform="translate(258,258) scale(2.15) rotate(0)"><path d="M5 0H10L5 5L0 10V5L5 0Z" fill="#2C2C2C"/><path d="M20 15V20H15L20 15Z" fill="#2C2C2C"/><path d="M20 5V10L15 15L10 20H5L20 5Z" fill="#2C2C2C"/><path d="M15 0H20L5 15.0002L0 20.0002V15.0002L15 0Z" fill="#2C2C2C"/></g><rect x="301" y="258" width="43" height="43" fill="#232729"/><g transform="translate(301,258) scale(2.15) rotate(0)"><path d="M5 0H10L5 5L0 10V5L5 0Z" fill="#2C2C2C"/><path d="M20 15V20H15L20 15Z" fill="#2C2C2C"/><path d="M20 5V10L15 15L10 20H5L20 5Z" fill="#2C2C2C"/><path d="M15 0H20L5 15.0002L0 20.0002V15.0002L15 0Z" fill="#2C2C2C"/></g><rect x="344" y="258" width="43" height="43" fill="#2C2C2C"/><g transform="translate(344,258) scale(2.15) rotate(0)"><path d="M10 0H20L0 20V10L10 0Z" fill="#151515"/><path d="M20 10V20H10L20 10Z" fill="#151515"/></g><rect x="387" y="258" width="43" height="43" fill="#000000"/><polygon points="387,258 430,301 387,301" fill="#000000"/><rect x="430" y="258" width="43" height="43" fill="#000000"/><g transform="translate(430,258) scale(2.15) rotate(0)"><path d="M5 0H10L5 5L0 10V5L5 0Z" fill="#151515"/><path d="M20 15V20H15L20 15Z" fill="#151515"/><path d="M20 5V10L15 15L10 20H5L20 5Z" fill="#151515"/><path d="M15 0H20L5 15.0002L0 20.0002V15.0002L15 0Z" fill="#151515"/></g><rect x="0" y="301" width="43" height="43" fill="#151515"/><polygon points="43,301 43,344 0,344" fill="#000000"/><rect x="43" y="301" width="43" height="43" fill="#000000"/><g transform="translate(43,301) scale(2.15) rotate(0)"><path d="M5 0H10L5 5L0 10V5L5 0Z" fill="#232729"/><path d="M20 15V20H15L20 15Z" fill="#232729"/><path d="M20 5V10L15 15L10 20H5L20 5Z" fill="#232729"/><path d="M15 0H20L5 15.0002L0 20.0002V15.0002L15 0Z" fill="#232729"/></g><rect x="86" y="301" width="43" height="43" fill="#151515"/><g transform="translate(86,301) scale(2.15) rotate(0)"><rect width="2" height="20" fill="#2C2C2C"/><rect x="4" width="2" height="20" fill="#2C2C2C"/><rect x="8" width="2" height="20" fill="#2C2C2C"/><rect x="12" width="2" height="20" fill="#2C2C2C"/><rect x="16" width="2" height="20" fill="#2C2C2C"/></g><rect x="129" y="301" width="43" height="43" fill="#000000"/><rect x="129" y="301" width="43" height="43" fill="#2C2C2C"/><rect x="172" y="301" width="43" height="43" fill="#000000"/><g transform="translate(172,301) scale(2.15) rotate(0)"><path d="M10 0H20L0 20V10L10 0Z" fill="#000000"/><path d="M20 10V20H10L20 10Z" fill="#000000"/></g><rect x="215" y="301" width="43" height="43" fill="#000000"/><rect x="215" y="301" width="43" height="43" fill="#2C2C2C"/><rect x="258" y="301" width="43" height="43" fill="#151515"/><g transform="translate(258,301) scale(2.15) rotate(0)"><path d="M5 0H10L5 5L0 10V5L5 0Z" fill="#000000"/><path d="M20 15V20H15L20 15Z" fill="#000000"/><path d="M20 5V10L15 15L10 20H5L20 5Z" fill="#000000"/><path d="M15 0H20L5 15.0002L0 20.0002V15.0002L15 0Z" fill="#000000"/></g><rect x="301" y="301" width="43" height="43" fill="#000000"/><g transform="translate(301,301) scale(2.15) rotate(0)"><path d="M5 0H10L5 5L0 10V5L5 0Z" fill="#000000"/><path d="M20 15V20H15L20 15Z" fill="#000000"/><path d="M20 5V10L15 15L10 20H5L20 5Z" fill="#000000"/><path d="M15 0H20L5 15.0002L0 20.0002V15.0002L15 0Z" fill="#000000"/></g><rect x="344" y="301" width="43" height="43" fill="#232729"/><g transform="translate(344,301) scale(2.15) rotate(0)"><path d="M5 0H10L5 5L0 10V5L5 0Z" fill="#000000"/><path d="M20 15V20H15L20 15Z" fill="#000000"/><path d="M20 5V10L15 15L10 20H5L20 5Z" fill="#000000"/><path d="M15 0H20L5 15.0002L0 20.0002V15.0002L15 0Z" fill="#000000"/></g><rect x="387" y="301" width="43" height="43" fill="#232729"/><rect x="387" y="301" width="43" height="43" fill="#2C2C2C"/><rect x="430" y="301" width="43" height="43" fill="#151515"/><g transform="translate(430,301) scale(2.15) rotate(0)"><rect width="2" height="20" fill="#000000"/><rect x="4" width="2" height="20" fill="#000000"/><rect x="8" width="2" height="20" fill="#000000"/><rect x="12" width="2" height="20" fill="#000000"/><rect x="16" width="2" height="20" fill="#000000"/></g><rect x="0" y="344" width="43" height="43" fill="#232729"/><polygon points="43,344 43,387 0,387" fill="#151515"/><rect x="43" y="344" width="43" height="43" fill="#2C2C2C"/><g transform="translate(43,344) scale(2.15) rotate(0)"><path d="M10 0H20L0 20V10L10 0Z" fill="#000000"/><path d="M20 10V20H10L20 10Z" fill="#000000"/></g><rect x="86" y="344" width="43" height="43" fill="#000000"/><g transform="translate(86,344) scale(2.15) rotate(0)"><rect width="2" height="20" fill="#000000"/><rect x="4" width="2" height="20" fill="#000000"/><rect x="8" width="2" height="20" fill="#000000"/><rect x="12" width="2" height="20" fill="#000000"/><rect x="16" width="2" height="20" fill="#000000"/></g><rect x="129" y="344" width="43" height="43" fill="#151515"/><g transform="translate(129,344) scale(2.15) rotate(0)"><rect width="2" height="20" fill="#151515"/><rect x="4" width="2" height="20" fill="#151515"/><rect x="8" width="2" height="20" fill="#151515"/><rect x="12" width="2" height="20" fill="#151515"/><rect x="16" width="2" height="20" fill="#151515"/></g><rect x="172" y="344" width="43" height="43" fill="#000000"/><g transform="translate(172,344) scale(2.15) rotate(0)"><path d="M5 0H10L5 5L0 10V5L5 0Z" fill="#000000"/><path d="M20 15V20H15L20 15Z" fill="#000000"/><path d="M20 5V10L15 15L10 20H5L20 5Z" fill="#000000"/><path d="M15 0H20L5 15.0002L0 20.0002V15.0002L15 0Z" fill="#000000"/></g><rect x="215" y="344" width="43" height="43" fill="#232729"/><g transform="translate(215,344) scale(2.15) rotate(0)"><path d="M10 0H20L0 20V10L10 0Z" fill="#151515"/><path d="M20 10V20H10L20 10Z" fill="#151515"/></g><rect x="258" y="344" width="43" height="43" fill="#000000"/><g transform="translate(258,344) scale(2.15) rotate(0)"><path d="M10 0H20L0 20V10L10 0Z" fill="#232729"/><path d="M20 10V20H10L20 10Z" fill="#232729"/></g><rect x="301" y="344" width="43" height="43" fill="#232729"/><g transform="translate(301,344) scale(2.15) rotate(0)"><path d="M10 0H20L0 20V10L10 0Z" fill="#000000"/><path d="M20 10V20H10L20 10Z" fill="#000000"/></g><rect x="344" y="344" width="43" height="43" fill="#000000"/><g transform="translate(344,344) scale(2.15) rotate(0)"><rect width="2" height="20" fill="#232729"/><rect x="4" width="2" height="20" fill="#232729"/><rect x="8" width="2" height="20" fill="#232729"/><rect x="12" width="2" height="20" fill="#232729"/><rect x="16" width="2" height="20" fill="#232729"/></g><rect x="387" y="344" width="43" height="43" fill="#000000"/><g transform="translate(387,344) scale(2.15) rotate(0)"><rect width="2" height="20" fill="#000000"/><rect x="4" width="2" height="20" fill="#000000"/><rect x="8" width="2" height="20" fill="#000000"/><rect x="12" width="2" height="20" fill="#000000"/><rect x="16" width="2" height="20" fill="#000000"/></g><rect x="430" y="344" width="43" height="43" fill="#2C2C2C"/><polygon points="430,344 473,387 430,387" fill="#232729"/><rect x="0" y="387" width="43" height="43" fill="#232729"/><g transform="translate(0,387) scale(2.15) rotate(0)"><rect width="2" height="20" fill="#000000"/><rect x="4" width="2" height="20" fill="#000000"/><rect x="8" width="2" height="20" fill="#000000"/><rect x="12" width="2" height="20" fill="#000000"/><rect x="16" width="2" height="20" fill="#000000"/></g><rect x="43" y="387" width="43" height="43" fill="#000000"/><g transform="translate(43,387) scale(2.15) rotate(0)"><path d="M10 0H20L0 20V10L10 0Z" fill="#232729"/><path d="M20 10V20H10L20 10Z" fill="#232729"/></g><rect x="86" y="387" width="43" height="43" fill="#232729"/><polygon points="86,387 129,430 86,430" fill="#000000"/><rect x="129" y="387" width="43" height="43" fill="#232729"/><g transform="translate(129,387) scale(2.15) rotate(0)"><path d="M10 0H20L0 20V10L10 0Z" fill="#000000"/><path d="M20 10V20H10L20 10Z" fill="#000000"/></g><rect x="172" y="387" width="43" height="43" fill="#000000"/><rect x="172" y="387" width="43" height="43" fill="#232729"/><rect x="215" y="387" width="43" height="43" fill="#232729"/><rect x="215" y="387" width="43" height="43" fill="#2C2C2C"/><rect x="258" y="387" width="43" height="43" fill="#151515"/><g transform="translate(258,387) scale(2.15) rotate(0)"><path d="M5 0H10L5 5L0 10V5L5 0Z" fill="#151515"/><path d="M20 15V20H15L20 15Z" fill="#151515"/><path d="M20 5V10L15 15L10 20H5L20 5Z" fill="#151515"/><path d="M15 0H20L5 15.0002L0 20.0002V15.0002L15 0Z" fill="#151515"/></g><rect x="301" y="387" width="43" height="43" fill="#2C2C2C"/><g transform="translate(301,387) scale(2.15) rotate(0)"><path d="M5 0H10L5 5L0 10V5L5 0Z" fill="#151515"/><path d="M20 15V20H15L20 15Z" fill="#151515"/><path d="M20 5V10L15 15L10 20H5L20 5Z" fill="#151515"/><path d="M15 0H20L5 15.0002L0 20.0002V15.0002L15 0Z" fill="#151515"/></g><rect x="344" y="387" width="43" height="43" fill="#151515"/><rect x="344" y="387" width="43" height="43" fill="#000000"/><rect x="387" y="387" width="43" height="43" fill="#2C2C2C"/><g transform="translate(387,387) scale(2.15) rotate(0)"><rect width="2" height="20" fill="#000000"/><rect x="4" width="2" height="20" fill="#000000"/><rect x="8" width="2" height="20" fill="#000000"/><rect x="12" width="2" height="20" fill="#000000"/><rect x="16" width="2" height="20" fill="#000000"/></g><rect x="430" y="387" width="43" height="43" fill="#000000"/><rect x="430" y="387" width="43" height="43" fill="#2C2C2C"/></g></svg>